<?xml version="1.0" standalone="no"?>
<!DOCTYPE svg PUBLIC "-//W3C//DTD SVG 20010904//EN"
 "http://www.w3.org/TR/2001/REC-SVG-20010904/DTD/svg10.dtd">
<svg version="1.0" xmlns="http://www.w3.org/2000/svg"
 width="260.000000pt" height="260.000000pt" viewBox="0 0 260.000000 260.000000"
 preserveAspectRatio="xMidYMid meet">
<metadata>
Created by potrace 1.14, written by Peter Selinger 2001-2017
</metadata>
<g transform="translate(0.000000,260.000000) scale(0.100000,-0.100000)"
fill="#000000" stroke="none">
<path d="M954 1305 l0 -885 823 0 823 0 0 885 0 885 -823 0 -823 0 0 -885z"/>
<path d="M335 1927 c-120 -32 -212 -97 -253 -179 -29 -59 -32 -74 -33 -155 -1
-56 4 -83 23 -125 41 -87 94 -135 268 -243 52 -32 112 -72 134 -89 92 -71 76
-163 -30 -180 -37 -6 -102 45 -139 108 -9 16 -22 12 -135 -35 -69 -29 -129
-55 -133 -59 -11 -10 28 -96 64 -142 72 -90 183 -139 329 -144 197 -7 354 66
415 192 30 60 32 165 5 244 -41 120 -106 189 -291 302 -182 112 -207 138 -194
198 8 38 61 65 107 56 42 -8 95 -55 110 -97 6 -17 13 -29 17 -27 4 2 60 23
124 48 114 44 116 45 111 74 -16 96 -109 195 -224 240 -58 23 -208 30 -275 13z"/>
</g>
</svg>
